<?xml version="1.0" encoding="UTF-8"?>
<!DOCTYPE svg PUBLIC "-//W3C//DTD SVG 1.1//EN" "http://www.w3.org/Graphics/SVG/1.1/DTD/svg11.dtd">
<!-- Creator: CorelDRAW X8 -->
<svg xmlns="http://www.w3.org/2000/svg" xml:space="preserve" width="215.9mm" height="279.4mm" version="1.1" style="shape-rendering:geometricPrecision; text-rendering:geometricPrecision; image-rendering:optimizeQuality; fill-rule:evenodd; clip-rule:evenodd"
viewBox="0 0 21590 27940"
 xmlns:xlink="http://www.w3.org/1999/xlink"
 aria-hidden="true"
 focusable="false"
 data-prefix="fas"
 data-icon="peace"
 role="img">
 <defs>
  <style type="text/css">
   <![CDATA[
    .fil0 {fill:#77C043}
   ]]>
  </style>
 </defs>
 <g id="Layer_x0020_1">
  <metadata id="CorelCorpID_0Corel-Layer"/>
  <g id="_3140384129072">
   <path class="fil0" d="M10816 3110c-5962,0 -10795,4832 -10795,10795 0,5962 4833,10795 10795,10795 5962,0 10795,-4833 10795,-10795 0,-5963 -4833,-10795 -10795,-10795zm8009 10795c0,1389 -357,2697 -982,3837l-5634 -4507 0 -7210c3754,662 6616,3939 6616,7880zm-9402 7879c-1474,-259 -2807,-922 -3886,-1872l3886 -3110 0 4982zm2786 -4982l3887 3109c-1080,950 -2413,1613 -3887,1873l0 -4982zm-2786 -10777l0 7210 -5634 4507c-625,-1140 -982,-2448 -982,-3837 0,-3941 2863,-7218 6616,-7880z"/>
  </g>
 </g>
</svg>
