<?xml version="1.0" encoding="UTF-8"?>
<!DOCTYPE svg PUBLIC "-//W3C//DTD SVG 1.1//EN" "http://www.w3.org/Graphics/SVG/1.1/DTD/svg11.dtd">
<!-- Creator: CorelDRAW X8 -->
<svg xmlns="http://www.w3.org/2000/svg" xml:space="preserve" width="215.9mm" height="279.4mm" version="1.1" style="shape-rendering:geometricPrecision; text-rendering:geometricPrecision; image-rendering:optimizeQuality; fill-rule:evenodd; clip-rule:evenodd"
viewBox="0 0 21590 27940"
 xmlns:xlink="http://www.w3.org/1999/xlink"
 aria-hidden="true"
 focusable="false"
 data-prefix="fas"
 data-icon="heartbeat"
 role="img">
 <defs>
  <style type="text/css">
   <![CDATA[
    .fil0 {fill:#77C043}
   ]]>
  </style>
 </defs>
 <g id="Layer_x0020_1">
  <metadata id="CorelCorpID_0Corel-Layer"/>
  <g id="_3140388446192">
   <path class="fil0" d="M13502 13536l-2096 4191c-253,511 -987,494 -1219,-25l-2399 -5326 -1265 3024 -3968 0 7695 7864c300,308 785,308 1084,0l7700 -7864 -4601 0 -931 -1864 0 0zm6472 -7164l-101 -106c-2172,-2218 -5726,-2218 -7902,0l-1177 1206 -1176 -1202c-2172,-2222 -5731,-2222 -7902,0l-102 102c-2053,2100 -2142,5444 -307,7678l4318 0 1513 -3634c228,-544 996,-557 1240,-17l2454 5452 2067 -4128c248,-498 957,-498 1206,0l1163 2327 5014 0c1834,-2234 1746,-5578 -308,-7678l0 0z"/>
  </g>
 </g>
</svg>
