<?xml version="1.0" encoding="UTF-8"?>
<!DOCTYPE svg PUBLIC "-//W3C//DTD SVG 1.1//EN" "http://www.w3.org/Graphics/SVG/1.1/DTD/svg11.dtd">
<!-- Creator: CorelDRAW X8 -->
<svg xmlns="http://www.w3.org/2000/svg" xml:space="preserve" width="215.9mm" height="279.4mm" version="1.1" style="shape-rendering:geometricPrecision; text-rendering:geometricPrecision; image-rendering:optimizeQuality; fill-rule:evenodd; clip-rule:evenodd"
viewBox="0 0 21590 27940"
 xmlns:xlink="http://www.w3.org/1999/xlink">
 <defs>
  <style type="text/css">
   <![CDATA[
    .fil0 {fill:#77C043}
   ]]>
  </style>
 </defs>
 <g id="Layer_x0020_1">
  <metadata id="CorelCorpID_0Corel-Layer"/>
  <g id="_3140397363776">
   <path class="fil0" d="M9705 7152c-10,13 -423,244 -485,284 -95,60 -164,107 -244,168 -80,61 -151,130 -229,149 -41,87 -8,42 -79,75l-450 417c-45,102 5,49 -92,97l-532 711 -438 773c-35,119 -165,488 -240,561l-272 958c-16,113 -41,206 -64,322 -17,82 -25,206 -72,274 25,136 -20,321 -48,458 -23,335 -67,653 -84,1000 -16,321 21,732 -14,1035 -320,134 -429,164 -757,-15 -264,-99 -589,-317 -802,-462 -253,-173 -502,-365 -735,-543 -268,-111 -385,-207 -743,-226 -405,-21 -513,95 -814,168 -130,125 -609,231 -1239,1135 -49,70 -268,468 -285,482 -155,547 -269,522 -407,1402 -48,303 -154,1406 -50,1649 75,174 298,340 567,227 245,-103 261,-282 292,-602 35,-359 143,-1265 318,-1493 70,543 -106,1030 -221,1536l-324 1426c-32,76 -7,24 -31,58 13,88 -146,799 -181,936 32,35 -5,-18 41,48 14,21 17,30 29,51 173,140 209,103 480,103l346 0 19 335 26 528 80 1566 -16 69c17,32 2,-32 21,63l20 286c17,387 -21,743 300,920 215,119 473,34 600,-94 151,-152 148,-362 160,-627 18,-383 107,-2896 165,-3040 47,29 43,-32 53,210 4,78 7,150 11,231l80 1545c19,345 38,685 55,1030 17,356 33,618 308,754 303,150 607,-49 694,-274 111,-290 110,-2898 195,-3058l-16 -81 15 -355 480 -8c776,0 211,-688 245,-1154 -77,-92 -120,-435 -144,-582 -40,-104 -74,-254 -64,-360l-50 -119c-11,-44 -20,-103 -29,-147l-196 -895c-27,-111 -63,-228 -57,-344 -88,-101 -26,-1219 -22,-1446 104,-6 275,81 393,119 140,45 329,75 445,112l521 26c57,-42 320,-99 431,-163 155,-90 215,-150 297,-286l289 13c355,-98 443,-208 573,-527 22,-198 -6,-527 81,-670 -19,-113 1,-299 38,-411 71,-758 340,-1735 636,-2328 52,321 50,1532 -18,1835l-295 1324c-7,31 -15,81 -24,109l-43 95c17,148 -48,329 -89,484 -22,127 -73,498 -147,579 9,122 -148,819 -194,939 -19,124 -44,222 -70,337 -12,56 -20,101 -31,153l-60 163c75,542 -867,2045 185,2069 279,7 746,-32 997,10l19 384 101 2081c23,336 56,1685 114,1885 73,251 264,446 496,533 133,50 289,64 442,31 75,-16 122,-32 189,-67l159 -85 246 -320c-3,-77 46,-368 53,-510l203 -3937 192 -4 193 3995c15,275 30,303 103,538 14,7 19,5 36,35 30,49 16,19 25,64l147 124c389,311 918,207 1185,-212l74 -97c-3,-99 42,-269 49,-403 7,-158 17,-306 24,-463 13,-295 36,-585 46,-875l40 -769 8 -183 91 -1762c650,-38 1586,227 1452,-633 -66,-228 -442,-1901 -424,-2023 -52,-74 -67,-208 -90,-311 -24,-106 -45,-206 -69,-315l-705 -3241 18 -1570c226,376 476,1611 552,2138 98,682 -8,1303 406,1603 325,235 449,38 550,170 53,27 92,103 134,150 42,46 109,100 170,139 124,79 311,147 466,160 681,59 928,-159 1351,-251l-45 751c-19,82 -8,36 -22,62 49,161 -35,1039 -48,1279 -12,208 -36,443 -32,644 5,218 100,438 100,570 134,115 120,344 126,557l24 522 36 743 15 286 87 1850c17,274 30,549 39,824 11,325 10,515 209,683 201,169 483,141 662,-12 171,-145 184,-408 191,-697 27,-1101 97,-2316 182,-3410l151 2997c16,508 -53,1080 395,1215 247,75 473,-53 565,-190 118,-176 115,-453 121,-693l49 -893c2,-8 4,-16 6,-23 2,-6 5,-15 7,-21 2,-5 4,-14 8,-20l-18 -43 136 -2703c1,-24 4,-79 8,-102l19 -66c2,-5 5,-14 9,-20 -29,-87 -19,-100 -12,-197 3,-108 4,-303 23,-402 46,-245 212,-296 166,-1066 -25,-403 -106,-1163 -72,-1540 496,1137 13,2186 868,2140 192,-85 280,-153 338,-367 22,-961 -71,-1517 -278,-2385l-179 -497 -88 -130c-20,-38 -44,-86 -70,-133 -295,-536 -676,-949 -1194,-1276 -113,-72 -197,-93 -264,-166 -116,6 -441,-150 -762,-133 -141,7 -274,36 -398,76 -118,38 -226,116 -328,128 -64,88 -609,479 -733,561 -210,138 -555,381 -823,471 -98,54 -239,104 -378,127 -178,30 -280,-46 -375,-143 -17,-532 1,-1026 -42,-1563l-180 -1406c-25,-29 -297,-989 -321,-1096l-193 -483c-91,-147 -178,-369 -273,-541 -82,-147 -266,-397 -300,-513l-488 -578c-93,-106 -164,-178 -270,-270 -58,-50 -238,-197 -259,-242 -91,-30 -380,-242 -515,-321 -186,-108 -359,-185 -537,-284l-511 -151c-294,-48 -552,-61 -847,-13 -311,49 -471,144 -720,207z"/>
   <path class="fil0" d="M9777 2351c-104,126 -380,186 -707,562 -331,380 -402,702 -482,782l-89 470 -2 560 90 479c96,90 277,865 1165,1308 624,311 1376,346 2020,33 381,-140 736,-504 931,-771 548,-754 546,-1860 9,-2635 -130,-189 -251,-320 -404,-445 -89,-73 -146,-121 -249,-187 -59,-38 -204,-109 -244,-149 -378,-117 -575,-229 -1052,-224 -191,5 -366,26 -546,75 -131,36 -340,135 -440,142z"/>
   <path class="fil0" d="M2501 10315c-16,26 -247,192 -297,244 -65,67 -196,273 -240,308 -127,411 -314,770 -33,1356 562,1176 2243,1110 2716,-95 36,-94 54,-247 103,-315l-12 -31c26,-457 -62,-841 -358,-1160 -49,-53 -76,-80 -129,-127l-140 -131 -27 -19c-135,-42 -198,-113 -433,-175l-166 -64c-84,32 -314,26 -409,-2 -90,60 -6,18 -166,58 -210,51 -248,96 -409,153z"/>
   <path class="fil0" d="M17965 10144c-149,40 -381,149 -470,158 -45,63 -107,92 -169,146l-275 291c-52,75 -58,112 -127,166 -1,15 -128,447 -137,474 -18,233 -6,336 22,557 117,286 183,547 480,780 599,470 1285,483 1895,28 249,-187 368,-436 510,-782 45,-330 41,-419 -3,-746l-92 -289c-84,-66 -203,-287 -282,-369 -52,-54 -104,-93 -168,-140 -70,-52 -121,-66 -178,-140 -46,-5 -401,-125 -498,-151l-508 17z"/>
  </g>
 </g>
</svg>
