<svg id="Layer_1" data-name="Layer 1" xmlns="http://www.w3.org/2000/svg" viewBox="0 0 50 50"><defs><style>.cls-1{fill:none;stroke:#77b841;stroke-linecap:round;stroke-linejoin:round;stroke-width:3px;}</style></defs><title>ovc</title><path class="cls-1" d="M9.39,9.1H12a2.21,2.21,0,0,1,2.21,2.21v7.52A3.14,3.14,0,0,1,11,22h-.72a3.14,3.14,0,0,1-3.14-3.14V11.31A2.21,2.21,0,0,1,9.39,9.1Z"/><path class="cls-1" d="M16.39,7.17H19a2.21,2.21,0,0,1,2.21,2.21V20.76A3.14,3.14,0,0,1,18,23.9h-.72a3.14,3.14,0,0,1-3.14-3.14V9.38a2.21,2.21,0,0,1,2.21-2.21Z"/><path class="cls-1" d="M28.17,15.22V7.31A2.21,2.21,0,0,0,26,5.1H23.39a2.21,2.21,0,0,0-2.22,2.21V22.84A3.15,3.15,0,0,0,24.31,26H25a3.15,3.15,0,0,0,3.14-3.14V21"/><path class="cls-1" d="M30.39,7.17H33a2.21,2.21,0,0,1,2.21,2.21v5.56a0,0,0,0,1,0,0h-7a0,0,0,0,1,0,0V9.38A2.21,2.21,0,0,1,30.39,7.17Z"/><path class="cls-1" d="M9.42,22v8a4.5,4.5,0,0,0,4.5,4.5h0V46.35"/><path class="cls-1" d="M34.93,46.35V34.47h0a4.5,4.5,0,0,0,4.5-4.5V17.27a2.34,2.34,0,0,0-2.33-2.33H29.44a3.15,3.15,0,0,0-3.14,3.14h0a3.14,3.14,0,0,0,3.14,3.14h3.42V27"/><path class="cls-1" d="M28.17,31.14a8.87,8.87,0,0,0-4.84,8.36"/></svg>