<svg id="Layer_1" data-name="Layer 1" xmlns="http://www.w3.org/2000/svg" viewBox="0 0 50 50"><defs><style>.cls-1{fill:none;stroke:#77b841;stroke-linecap:round;stroke-linejoin:round;stroke-width:3px;}</style></defs><title>empowerment</title><path class="cls-1" d="M42.66,45A17.83,17.83,0,0,0,24.83,27.16a17.65,17.65,0,0,0-7.27,1.55A17.82,17.82,0,0,0,7,45"/><path class="cls-1" d="M28.29,23.53H31l-1.28-3.84a19,19,0,0,1-.53-2.23,4.43,4.43,0,0,0-1.2-2.22,4.4,4.4,0,0,0-7.42,2.22A19,19,0,0,1,20,19.69l-1.28,3.84h2.67"/><line class="cls-1" x1="21.38" y1="27.49" x2="21.38" y2="23.53"/><line class="cls-1" x1="28.29" y1="27.5" x2="28.29" y2="23.53"/><circle class="cls-1" cx="24.83" cy="7.63" r="2.63"/><path class="cls-1" d="M42.2,27.48l2.45,1,.33-4a19.38,19.38,0,0,1,.38-2.26,4.29,4.29,0,0,0-.23-2.51,4.4,4.4,0,0,0-7.69-.87,20.41,20.41,0,0,1-1.37,1.84l-2.68,3,2.45,1.05"/><line class="cls-1" x1="35.84" y1="24.76" x2="33.78" y2="29.58"/><polyline class="cls-1" points="37.05 32.02 39.76 33.18 42.2 27.48"/><circle class="cls-1" cx="45.26" cy="11.5" r="2.63"/><path class="cls-1" d="M14.16,24.76l2.45-1.05-2.68-3a20.41,20.41,0,0,1-1.37-1.84,4.4,4.4,0,0,0-7.69.87,4.29,4.29,0,0,0-.23,2.51A19.38,19.38,0,0,1,5,24.49l.33,4,2.45-1"/><polyline class="cls-1" points="7.8 27.48 10.24 33.18 12.33 32.28"/><line class="cls-1" x1="16.15" y1="29.42" x2="14.16" y2="24.76"/><circle class="cls-1" cx="4.74" cy="11.5" r="2.63"/><path class="cls-1" d="M8.33,38.23S16,38.15,18.89,45"/><path class="cls-1" d="M17.56,28.71a6.81,6.81,0,0,1,8.54,9c-1.38,3.92.29,6.11,2.51,7.33"/></svg>