<?xml version="1.0" encoding="UTF-8"?>
<!DOCTYPE svg PUBLIC "-//W3C//DTD SVG 1.1//EN" "http://www.w3.org/Graphics/SVG/1.1/DTD/svg11.dtd">
<!-- Creator: CorelDRAW X8 -->
<svg xmlns="http://www.w3.org/2000/svg" xml:space="preserve" width="215.9mm" height="279.4mm" version="1.1" style="shape-rendering:geometricPrecision; text-rendering:geometricPrecision; image-rendering:optimizeQuality; fill-rule:evenodd; clip-rule:evenodd"
viewBox="0 0 21590 27940"
 xmlns:xlink="http://www.w3.org/1999/xlink"
 aria-hidden="true"
 focusable="false"
 data-prefix="fas"
 data-icon="fist-raised"
 role="img">
 <defs>
  <style type="text/css">
   <![CDATA[
    .fil0 {fill:#77C043}
   ]]>
  </style>
 </defs>
 <g id="Layer_x0020_1">
  <metadata id="CorelCorpID_0Corel-Layer"/>
  <g id="_3140397349792">
   <path class="fil0" d="M14248 8706l0 -7858c0,-483 -390,-873 -873,-873l-1746 0c-482,0 -873,390 -873,873l0 8018c274,-97 564,-160 871,-160l2621 0zm6985 5238c0,-1928 -1564,-3492 -3492,-3492l-6119 0c-479,0 -868,386 -868,865l0 31c0,1433 1163,2597 2596,2597l1924 0c528,0 721,195 721,436l0 884c0,234 -196,425 -430,437 -2430,124 -3502,1348 -5242,3959l-344 517c-81,121 -217,194 -363,194 -86,0 -171,-25 -242,-73l-727 -485c-121,-81 -194,-217 -194,-363 0,-86 25,-170 73,-242l344 -517c859,-1288 1648,-2360 2582,-3169 -942,-301 -1713,-989 -2121,-1880 -360,186 -762,301 -1193,301l-1747 0c-673,0 -1282,-262 -1746,-681 -465,419 -1073,682 -1746,682l-1746 0c-308,0 -599,-63 -874,-161l0 4252c0,1853 736,3629 2046,4939l1446 1447 0 3493 13969 0 0 -3491 1960 -1960c982,-983 1534,-2316 1534,-3705 0,0 0,-1 0,-1l-1 -4814 0 0zm-3280 3604l0 -14954c0,-482 -391,-873 -873,-873l-1746 0c-483,0 -873,391 -873,873l0 6112 1746 0c615,0 1197,126 1746,322l0 8520zm-16800 -5350l1746 0c482,0 873,-390 873,-873l0 -6985c0,-482 -391,-873 -873,-873l-1746 0c-483,0 -874,391 -874,873l0 6985c0,483 391,873 874,873l0 0zm5238 0l1746 0c482,0 873,-390 873,-873l0 -8731c0,-482 -391,-873 -873,-873l-1746 0c-483,0 -873,391 -873,873l0 8731c0,483 390,873 873,873l0 0z"/>
  </g>
 </g>
</svg>
